Coordinates
version=1
nRows=12
nColumns=24
inDegrees=yes

Units are S.I. units (second, meters, Newtons, ...)
Angles are in degrees.

endheader
time	pelvis_tilt	pelvis_list	pelvis_rotation	pelvis_tx	pelvis_ty	pelvis_tz	hip_flexion_r	hip_adduction_r	hip_rotation_r	knee_angle_r	ankle_angle_r	subtalar_angle_r	mtp_angle_r	hip_flexion_l	hip_adduction_l	hip_rotation_l	knee_angle_l	ankle_angle_l	subtalar_angle_l	mtp_angle_l	lumbar_extension	lumbar_bending	lumbar_rotation
      0.61699999999999999289	      6.79094419359101308942	      2.79889152888805847752	      0.92449679184641653240	      0.58900250531665998555	      1.01256047329244402988	     -0.01363745553811110747	     15.25297604014281027673	     -4.91094070030979690245	     -5.23162244232904516394	      0.54164379622633951339	      1.32157298525851674142	      0.00000142082323564047	      0.00000000000000000000	    -25.05663460101421335935	      4.73909180435587717994	      3.70788190152213648076	     -2.85124036432705851851	     11.77880869580521583373	      0.00000470034823624809	      0.00000000000000000000	    -24.87938883337982787225	     -2.66453659003438048103	     -6.48410988972091573146
      0.63300000000000000711	      6.73883630634473984600	      2.72340915584665044236	      1.44612879493349444360	      0.59000636424953156745	      1.01105515572310999950	     -0.01122286806065355899	     15.88877606662831354356	     -4.74894358069347433116	     -5.72307357348149459142	     -2.02302449320708044311	      0.56232595525845607831	      0.00000109705221056217	      0.00000000000000000000	    -25.42734317864058724012	      4.18282107644837086724	      4.26959610201954298248	     -4.39793175817526371674	     12.24387730076771418908	      0.00000532678040614699	      0.00000000000000000000	    -24.80951344422539506240	     -2.23460907167902966819	     -6.70621139858339176953
      0.65000000000000002220	      6.63697320268078172489	      2.51856442023671700525	      1.92578569384362463524	      0.59154079158896888391	      1.00990940503737069989	     -0.00820573920579113596	     16.55217935545407215159	     -4.45489561674660627943	     -6.32321105318797993533	     -4.97961262358414114004	     -0.58724930176071377108	      0.00000077939388109307	      0.00000000000000000000	    -25.61775802668814705498	      3.50441698383572797226	      4.74907213537083006116	     -6.19105323466328627546	     12.54965133445531577649	      0.00000607547733973295	      0.00000000000000000000	    -24.61900475632416629423	     -1.72870854515795335793	     -6.96669593387497521064
      0.66700000000000003730	      6.49384591021670409816	      2.39379033396943485812	      2.30164592116692467982	      0.59352726018495627347	      1.00945279838510559856	     -0.00566207364065619227	     17.14491192565332866593	     -4.30505806025724346853	     -6.76433362160308870870	     -7.93779675915754268090	     -1.81892725552999268146	      0.00000061038581119462	      0.00000000000000000000	    -25.53066085556506337184	      3.03078207210751626732	      5.13854572374508933308	     -8.43888907671914267894	     12.54725244201881295680	      0.00000687801504128402	      0.00000000000000000000	    -24.32521375416662579028	     -1.14328132391173631355	     -7.06312710595656501056
      0.68300000000000005151	      6.54229194020061921577	      2.28415147819043173882	      2.41291018081478547685	      0.59516477831121894493	      1.00978154132304775992	     -0.00282410608497016703	     17.70188688960903533598	     -4.15061546662469105229	     -6.87741803449889221866	    -11.30999915437274516705	     -2.52824836868076774365	      0.00000048388305060337	      0.00000000000000000000	    -25.25807575847279196068	      2.71755094830877652612	      5.22534303400223709701	    -11.36603614956690400106	     12.23538084773433176622	      0.00000786978937483645	      0.00000000000000000000	    -24.21107621171515944525	     -0.60766544589453497238	     -6.88399825765162720614
      0.69999999999999995559	      6.77702817472798990650	      1.96710325236024208273	      2.73467393108594958306	      0.59847824193857512842	      1.01120648808137336694	     -0.00043437123700512296	     17.72250682416456157853	     -3.86283158849479413277	     -7.13047639658655807438	    -14.44012774697943868318	     -2.64411055001328199054	      0.00000046422152071280	      0.00000000000000000000	    -24.88497526272876569919	      2.12673678667652721330	      5.28063185084286068616	    -14.90137297774665015027	     11.42915779615418969684	      0.00000915563310632531	      0.00000000000000000000	    -24.30223909819410366140	      0.15643163388592429275	     -6.89907461837109448055
      0.71699999999999997069	      7.01297563635302356744	      1.70059736046119769348	      2.98031247569158752597	      0.60141827251644597307	      1.01310129835784445973	      0.00196051342155125667	     17.28439365510427450090	     -3.59147568737159872398	     -7.28994613173392469463	    -16.69568066402669614945	     -2.59005739858634775885	      0.00000041423802347729	      0.00000000000000000000	    -23.86871771306810785518	      1.64310948407006307548	      4.98419238854863255739	    -19.47375268086546284962	     10.14144479903684192834	      0.00001086705172385005	      0.00000000000000000000	    -24.27949520249113746218	      0.98433144611945910807	     -6.95034108322956445392
      0.73299999999999998490	      6.99154553675296330795	      1.61841412208553436791	      3.19099730650888657735	      0.60343424441228721289	      1.01465764370251854132	      0.00496337425370756754	     17.09228490022850266428	     -3.48559766321164143932	     -7.43850149116152792317	    -18.86208736213501779844	     -2.14172748658898770557	      0.00000066508317581346	      0.00000000000000000000	    -21.57537092374317566623	      1.32414277728071549944	      4.22735873826973662659	    -25.63791074346666931660	      8.32713168751237198251	      0.00001304257565803140	      0.00000000000000000000	    -24.07616591395253990981	      1.39190670644752456653	     -6.80924637861495529734
      0.75000000000000000000	      6.92136213530830612939	      1.36191597136831821224	      3.34634422898849015482	      0.60582161962715952441	      1.01652175036853220647	      0.00804090819007723806	     16.45678458778695585352	     -3.13825533526416267094	     -7.71200678821847240840	    -20.13388852793352867820	     -1.53101078998921913410	      0.00000115232906126078	      0.00000000000000000000	    -18.79897999324208512917	      0.67171248320559362455	      2.78699548028438792713	    -32.15652030583064657776	      5.42449047397788230995	      0.00001526689759270628	      0.00000000000000000000	    -23.77611343861599380034	      1.95293461579767457792	     -7.03170089029940292846
      0.76700000000000001510	      6.63644517525977573058	      1.04313169891902401965	      3.55413769567762161117	      0.60742683958781951148	      1.01814700717724804235	      0.01099219524086837881	     15.89765362854133101678	     -2.70067871827330607815	     -7.99823165624033904919	    -21.05831637508223863620	     -0.62087152828976832630	      0.00000139434794623947	      0.00000000000000000000	    -15.21310012309756309890	     -0.37280998402109866152	      0.74291246663107546322	    -39.09815935023958388683	      1.57599431910392939749	      0.00001745136676922234	      0.00000000000000000000	    -23.35008460508107930309	      2.52537581331595895051	     -6.71440788425728118938
      0.78300000000000002931	      6.37673490570017076351	      0.47192159573774017378	      3.75061674176923931512	      0.60767877249159840680	      1.01974400956883259894	      0.01454983657270971821	     15.06209091808355715614	     -1.88705015907989159807	     -8.34918961539932880100	    -21.26985189891732730416	      0.19998253608133093051	      0.00000158385370942521	      0.00000000000000000000	    -11.43109029470542203910	     -2.05002758358089876012	     -1.56172364428776888623	    -45.73408179172975707161	     -2.60287736803434377464	      0.00001823828788863302	      0.00000000000000000000	    -23.02512247712100901254	      3.19516152483265170048	     -6.34043855290801339208
      0.80000000000000004441	      6.21012996584601584260	     -0.31353626443034410265	      3.77596585820580177284	      0.60791486025023244721	      1.02132865465441913244	      0.01833875550427089759	     14.10419423969532637386	     -0.75051048840334932954	     -8.49933041524609578232	    -21.36884245343690835739	      1.19332959444292030504	      0.00000151301578677148	      0.00000000000000000000	     -7.82399845637795277042	     -4.23710666744269914830	     -4.02157710710525506670	    -51.74652061122765900336	     -6.29667993257096547666	      0.00001798021012892554	      0.00000000000000000000	    -22.76562425606239159492	      4.01545259757107153575	     -5.56187466755506676463
